<mxfile host="app.diagrams.net" modified="2020-07-20T01:51:54.822Z" agent="5.0 (Macintosh; Intel Mac OS X 10_15_4) AppleWebKit/537.36 (KHTML, like Gecko) Chrome/83.0.4103.116 Safari/537.36" etag="sGYGjV9mplXEcVr6eGir" version="13.4.8" type="github" pages="2">
  <diagram id="h8vEt84K2LKZx6n1-zNa" name="Page-1">
    <mxGraphModel dx="946" dy="614" grid="1" gridSize="10" guides="1" tooltips="1" connect="1" arrows="1" fold="1" page="1" pageScale="1" pageWidth="850" pageHeight="1100" math="0" shadow="0">
      <root>
        <mxCell id="0" />
        <mxCell id="1" parent="0" />
        <mxCell id="5sxEIASxf2YLIO1WHV6I-1" value="HỆ THỐNG WEBSITE&lt;br&gt;XEM PHÒNG KHÁCH SẠN" style="whiteSpace=wrap;html=1;aspect=fixed;" vertex="1" parent="1">
          <mxGeometry x="300" y="170" width="160" height="160" as="geometry" />
        </mxCell>
        <mxCell id="5sxEIASxf2YLIO1WHV6I-2" value="KHÁCH HÀNG" style="rounded=0;whiteSpace=wrap;html=1;" vertex="1" parent="1">
          <mxGeometry x="60" y="210" width="120" height="60" as="geometry" />
        </mxCell>
        <mxCell id="5sxEIASxf2YLIO1WHV6I-3" value="QUẢN TRỊ" style="rounded=0;whiteSpace=wrap;html=1;" vertex="1" parent="1">
          <mxGeometry x="590" y="210" width="120" height="60" as="geometry" />
        </mxCell>
        <mxCell id="5sxEIASxf2YLIO1WHV6I-6" value="" style="endArrow=classic;html=1;entryX=0;entryY=0.306;entryDx=0;entryDy=0;entryPerimeter=0;" edge="1" parent="1" target="5sxEIASxf2YLIO1WHV6I-1">
          <mxGeometry relative="1" as="geometry">
            <mxPoint x="180" y="219.5" as="sourcePoint" />
            <mxPoint x="280" y="219.5" as="targetPoint" />
          </mxGeometry>
        </mxCell>
        <mxCell id="5sxEIASxf2YLIO1WHV6I-7" value="tương tác thông tin" style="edgeLabel;resizable=0;html=1;align=center;verticalAlign=middle;" connectable="0" vertex="1" parent="5sxEIASxf2YLIO1WHV6I-6">
          <mxGeometry relative="1" as="geometry" />
        </mxCell>
        <mxCell id="5sxEIASxf2YLIO1WHV6I-13" value="" style="endArrow=classic;html=1;exitX=0;exitY=0.5;exitDx=0;exitDy=0;" edge="1" parent="1" source="5sxEIASxf2YLIO1WHV6I-1">
          <mxGeometry relative="1" as="geometry">
            <mxPoint x="240" y="360" as="sourcePoint" />
            <mxPoint x="181" y="248" as="targetPoint" />
            <Array as="points">
              <mxPoint x="300" y="250" />
            </Array>
          </mxGeometry>
        </mxCell>
        <mxCell id="5sxEIASxf2YLIO1WHV6I-14" value="thông tin" style="edgeLabel;resizable=0;html=1;align=center;verticalAlign=middle;" connectable="0" vertex="1" parent="5sxEIASxf2YLIO1WHV6I-13">
          <mxGeometry relative="1" as="geometry" />
        </mxCell>
        <mxCell id="5sxEIASxf2YLIO1WHV6I-15" value="" style="endArrow=classic;html=1;" edge="1" parent="1">
          <mxGeometry relative="1" as="geometry">
            <mxPoint x="460" y="220" as="sourcePoint" />
            <mxPoint x="460" y="220" as="targetPoint" />
            <Array as="points">
              <mxPoint x="590" y="220" />
            </Array>
          </mxGeometry>
        </mxCell>
        <mxCell id="5sxEIASxf2YLIO1WHV6I-17" value="quản lý &lt;br&gt;thông tin" style="edgeLabel;html=1;align=center;verticalAlign=middle;resizable=0;points=[];" vertex="1" connectable="0" parent="5sxEIASxf2YLIO1WHV6I-15">
          <mxGeometry x="-0.4154" relative="1" as="geometry">
            <mxPoint as="offset" />
          </mxGeometry>
        </mxCell>
        <mxCell id="5sxEIASxf2YLIO1WHV6I-23" value="tương tác quản&lt;br&gt;&amp;nbsp;lý thông tin" style="endArrow=classic;html=1;" edge="1" parent="1">
          <mxGeometry relative="1" as="geometry">
            <mxPoint x="460" y="260" as="sourcePoint" />
            <mxPoint x="590" y="260" as="targetPoint" />
          </mxGeometry>
        </mxCell>
        <mxCell id="5sxEIASxf2YLIO1WHV6I-25" value="" style="endArrow=classic;html=1;exitX=0.5;exitY=1;exitDx=0;exitDy=0;entryX=-0.012;entryY=0.869;entryDx=0;entryDy=0;entryPerimeter=0;" edge="1" parent="1" source="5sxEIASxf2YLIO1WHV6I-2" target="5sxEIASxf2YLIO1WHV6I-1">
          <mxGeometry relative="1" as="geometry">
            <mxPoint x="120" y="310" as="sourcePoint" />
            <mxPoint x="220" y="310" as="targetPoint" />
            <Array as="points">
              <mxPoint x="120" y="310" />
            </Array>
          </mxGeometry>
        </mxCell>
        <mxCell id="5sxEIASxf2YLIO1WHV6I-26" value="tương tác tìm kiếm" style="edgeLabel;resizable=0;html=1;align=center;verticalAlign=middle;" connectable="0" vertex="1" parent="5sxEIASxf2YLIO1WHV6I-25">
          <mxGeometry relative="1" as="geometry" />
        </mxCell>
        <mxCell id="5sxEIASxf2YLIO1WHV6I-27" value="" style="endArrow=classic;html=1;exitX=0.125;exitY=1;exitDx=0;exitDy=0;exitPerimeter=0;entryX=0.25;entryY=1;entryDx=0;entryDy=0;" edge="1" parent="1" source="5sxEIASxf2YLIO1WHV6I-1" target="5sxEIASxf2YLIO1WHV6I-2">
          <mxGeometry relative="1" as="geometry">
            <mxPoint x="370" y="380" as="sourcePoint" />
            <mxPoint x="90" y="380" as="targetPoint" />
            <Array as="points">
              <mxPoint x="320" y="380" />
              <mxPoint x="90" y="380" />
            </Array>
          </mxGeometry>
        </mxCell>
        <mxCell id="5sxEIASxf2YLIO1WHV6I-28" value="tìm kiếm" style="edgeLabel;resizable=0;html=1;align=center;verticalAlign=middle;" connectable="0" vertex="1" parent="5sxEIASxf2YLIO1WHV6I-27">
          <mxGeometry relative="1" as="geometry" />
        </mxCell>
      </root>
    </mxGraphModel>
  </diagram>
  <diagram id="2Tb8RCOsWn9iy9al7R0B" name="Page-2">
    <mxGraphModel dx="946" dy="614" grid="1" gridSize="10" guides="1" tooltips="1" connect="1" arrows="1" fold="1" page="1" pageScale="1" pageWidth="850" pageHeight="1100" math="0" shadow="0">
      <root>
        <mxCell id="5rQlAWVMYav39eZYaUzv-0" />
        <mxCell id="5rQlAWVMYav39eZYaUzv-1" parent="5rQlAWVMYav39eZYaUzv-0" />
        <mxCell id="5rQlAWVMYav39eZYaUzv-2" value="HỆ THỐNG WEBSITE XEM PHÒNG KHÁCH SẠN" style="rounded=0;whiteSpace=wrap;html=1;" vertex="1" parent="5rQlAWVMYav39eZYaUzv-1">
          <mxGeometry x="330" y="40" width="210" height="60" as="geometry" />
        </mxCell>
        <mxCell id="5rQlAWVMYav39eZYaUzv-3" value="" style="endArrow=none;html=1;" edge="1" parent="5rQlAWVMYav39eZYaUzv-1">
          <mxGeometry width="50" height="50" relative="1" as="geometry">
            <mxPoint x="150" y="140" as="sourcePoint" />
            <mxPoint x="680" y="140" as="targetPoint" />
          </mxGeometry>
        </mxCell>
        <mxCell id="5rQlAWVMYav39eZYaUzv-4" value="XEM THÔNG TIN" style="rounded=0;whiteSpace=wrap;html=1;" vertex="1" parent="5rQlAWVMYav39eZYaUzv-1">
          <mxGeometry x="90" y="170" width="120" height="60" as="geometry" />
        </mxCell>
        <mxCell id="5rQlAWVMYav39eZYaUzv-5" value="TÌM KIẾM THÔNG TIN" style="rounded=0;whiteSpace=wrap;html=1;" vertex="1" parent="5rQlAWVMYav39eZYaUzv-1">
          <mxGeometry x="375" y="170" width="120" height="60" as="geometry" />
        </mxCell>
        <mxCell id="5rQlAWVMYav39eZYaUzv-6" value="QUẢN LÝ THÔNG TIN" style="rounded=0;whiteSpace=wrap;html=1;" vertex="1" parent="5rQlAWVMYav39eZYaUzv-1">
          <mxGeometry x="620" y="170" width="120" height="60" as="geometry" />
        </mxCell>
        <mxCell id="5rQlAWVMYav39eZYaUzv-8" value="" style="endArrow=none;html=1;exitX=0.5;exitY=0;exitDx=0;exitDy=0;" edge="1" parent="5rQlAWVMYav39eZYaUzv-1" source="5rQlAWVMYav39eZYaUzv-4">
          <mxGeometry width="50" height="50" relative="1" as="geometry">
            <mxPoint x="100" y="190" as="sourcePoint" />
            <mxPoint x="150" y="140" as="targetPoint" />
            <Array as="points" />
          </mxGeometry>
        </mxCell>
        <mxCell id="5rQlAWVMYav39eZYaUzv-11" value="TÌM KIẾM THEO LOẠI PHÒNG" style="rounded=0;whiteSpace=wrap;html=1;" vertex="1" parent="5rQlAWVMYav39eZYaUzv-1">
          <mxGeometry x="375" y="260" width="120" height="60" as="geometry" />
        </mxCell>
        <mxCell id="5rQlAWVMYav39eZYaUzv-12" value="" style="endArrow=none;html=1;exitX=0.5;exitY=0;exitDx=0;exitDy=0;entryX=0.5;entryY=1;entryDx=0;entryDy=0;" edge="1" parent="5rQlAWVMYav39eZYaUzv-1" source="5rQlAWVMYav39eZYaUzv-11" target="5rQlAWVMYav39eZYaUzv-5">
          <mxGeometry width="50" height="50" relative="1" as="geometry">
            <mxPoint x="375" y="280" as="sourcePoint" />
            <mxPoint x="425" y="230" as="targetPoint" />
          </mxGeometry>
        </mxCell>
        <mxCell id="5rQlAWVMYav39eZYaUzv-13" value="THÊM THÔNG TIN PHÒNG" style="rounded=0;whiteSpace=wrap;html=1;" vertex="1" parent="5rQlAWVMYav39eZYaUzv-1">
          <mxGeometry x="710" y="260" width="120" height="60" as="geometry" />
        </mxCell>
        <mxCell id="5rQlAWVMYav39eZYaUzv-14" value="CẬP NHẬT THÔNG TIN PHÒNG" style="rounded=0;whiteSpace=wrap;html=1;" vertex="1" parent="5rQlAWVMYav39eZYaUzv-1">
          <mxGeometry x="710" y="350" width="120" height="60" as="geometry" />
        </mxCell>
        <mxCell id="5rQlAWVMYav39eZYaUzv-15" value="XÓA THÔNG TIN PHÒNG" style="rounded=0;whiteSpace=wrap;html=1;" vertex="1" parent="5rQlAWVMYav39eZYaUzv-1">
          <mxGeometry x="710" y="430" width="120" height="60" as="geometry" />
        </mxCell>
        <mxCell id="5rQlAWVMYav39eZYaUzv-19" value="" style="endArrow=none;html=1;" edge="1" parent="5rQlAWVMYav39eZYaUzv-1">
          <mxGeometry width="50" height="50" relative="1" as="geometry">
            <mxPoint x="680" y="460" as="sourcePoint" />
            <mxPoint x="680" y="230" as="targetPoint" />
          </mxGeometry>
        </mxCell>
        <mxCell id="5rQlAWVMYav39eZYaUzv-20" value="" style="endArrow=none;html=1;exitX=0.5;exitY=0;exitDx=0;exitDy=0;" edge="1" parent="5rQlAWVMYav39eZYaUzv-1" source="5rQlAWVMYav39eZYaUzv-6">
          <mxGeometry width="50" height="50" relative="1" as="geometry">
            <mxPoint x="630" y="190" as="sourcePoint" />
            <mxPoint x="680" y="140" as="targetPoint" />
          </mxGeometry>
        </mxCell>
        <mxCell id="5rQlAWVMYav39eZYaUzv-21" value="" style="endArrow=none;html=1;entryX=0;entryY=0.5;entryDx=0;entryDy=0;" edge="1" parent="5rQlAWVMYav39eZYaUzv-1" target="5rQlAWVMYav39eZYaUzv-15">
          <mxGeometry width="50" height="50" relative="1" as="geometry">
            <mxPoint x="680" y="460" as="sourcePoint" />
            <mxPoint x="700" y="460" as="targetPoint" />
          </mxGeometry>
        </mxCell>
        <mxCell id="5rQlAWVMYav39eZYaUzv-22" value="" style="endArrow=none;html=1;" edge="1" parent="5rQlAWVMYav39eZYaUzv-1">
          <mxGeometry width="50" height="50" relative="1" as="geometry">
            <mxPoint x="680" y="380" as="sourcePoint" />
            <mxPoint x="710" y="380" as="targetPoint" />
          </mxGeometry>
        </mxCell>
        <mxCell id="5rQlAWVMYav39eZYaUzv-23" value="" style="endArrow=none;html=1;" edge="1" parent="5rQlAWVMYav39eZYaUzv-1">
          <mxGeometry width="50" height="50" relative="1" as="geometry">
            <mxPoint x="680" y="290" as="sourcePoint" />
            <mxPoint x="710" y="290" as="targetPoint" />
          </mxGeometry>
        </mxCell>
        <mxCell id="5rQlAWVMYav39eZYaUzv-26" value="" style="endArrow=none;html=1;exitX=0.5;exitY=0;exitDx=0;exitDy=0;entryX=0.5;entryY=1;entryDx=0;entryDy=0;" edge="1" parent="5rQlAWVMYav39eZYaUzv-1" source="5rQlAWVMYav39eZYaUzv-5" target="5rQlAWVMYav39eZYaUzv-2">
          <mxGeometry width="50" height="50" relative="1" as="geometry">
            <mxPoint x="390" y="150" as="sourcePoint" />
            <mxPoint x="440" y="100" as="targetPoint" />
          </mxGeometry>
        </mxCell>
      </root>
    </mxGraphModel>
  </diagram>
</mxfile>
